<svg xmlns="http://www.w3.org/2000/svg" viewBox="0 0 815.77 144"><title>footer-logo</title><g id="Layer_2" data-name="Layer 2"><g id="Layer_1-2" data-name="Layer 1"><path d="M56.67,69.27,92.68,0h20.66L65.77,86.52V144H60.49a12.92,12.92,0,0,1-12.92-12.92V86.52L0,0H20.85Z"/><path d="M182.91,101.87H125.1l-13.17,41.66h0A12.92,12.92,0,0,1,99.86,126L146.05,0H162l54,143.49h-9.63A12.92,12.92,0,0,1,194.23,135l-11.32-33.13ZM130.6,87h46.91L154,22.46h0L130.6,87Z"/><path d="M308.67,14.88H264.32V144h-5.18a12.92,12.92,0,0,1-12.92-12.92V14.88H202V0h106.7Z"/><path d="M344.78,144H339.5a12.92,12.92,0,0,1-12.92-12.92V0h18.2Z"/><path d="M396.33,129.12h65.39V144H391A12.92,12.92,0,0,1,378,131.08V0h18.29Z"/><path d="M560.46,101.87h-57.8L487.51,144h0a13,13,0,0,1-12.16-17.65L523.6,0h15.92l55.09,144h-9.74a12.91,12.91,0,0,1-12.13-8.49ZM508.15,87h46.91l-23.5-64.53Z"/><path d="M610.88,130.53V.13H656q22.46,0,33.78,9.68T701.1,38.47a30.08,30.08,0,0,1-5.5,17.83,35.94,35.94,0,0,1-15,12,32,32,0,0,1,17.67,12.4q6.5,9.14,6.49,21.79,0,19.36-12,30.43t-34,11.07H623.8A13.2,13.2,0,0,1,610.88,130.53Zm18.19-69h27.49q11.94,0,19.09-6.24t7.16-16.93q0-11.88-6.64-17.28T656,15.64H629.07Zm0,15.22v51.78h30q12.71,0,20-6.87t7.34-18.92q0-26-27.1-26Z"/><path d="M764.59,79.6q-23.4-6.82-34.06-16.79a32.31,32.31,0,0,1-10.66-24.6q0-16.55,13-27.38T766.77,0a55.8,55.8,0,0,1,25.35,5.58A41.92,41.92,0,0,1,809.37,21a39.83,39.83,0,0,1,6.11,21.47H797.19q0-12.75-8-20t-22.46-7.3q-13.46,0-21,6t-7.53,16.73q0,8.58,7.15,14.51t24.36,10.85Q787,68.15,796.67,74.07t14.41,13.81a35.77,35.77,0,0,1,4.69,18.58q0,17-13.08,27.29t-35,10.25a64.14,64.14,0,0,1-26.53-5.53q-12.33-5.53-19-15.17a37.34,37.34,0,0,1-6.68-21.85H733.8q0,12.72,9.24,20.07t24.68,7.37q14.4,0,22.08-6t7.68-16.27q0-10.29-7.11-15.93T764.59,79.6Z"/></g></g></svg>