<svg xmlns="http://www.w3.org/2000/svg" xmlns:xlink="http://www.w3.org/1999/xlink" width="61" height="51" viewBox="0 0 61 51">
  <defs>
    <filter id="Knob" x="20.5" y="9" width="30" height="31.5" filterUnits="userSpaceOnUse">
      <feOffset dy="3" input="SourceAlpha"/>
      <feGaussianBlur stdDeviation="0.5" result="blur"/>
      <feFlood flood-opacity="0.059"/>
      <feComposite operator="in" in2="blur"/>
      <feComposite in="SourceGraphic"/>
    </filter>
    <filter id="Knob-2" x="10" y="0" width="51" height="51" filterUnits="userSpaceOnUse">
      <feOffset dy="3" input="SourceAlpha"/>
      <feGaussianBlur stdDeviation="4" result="blur-2"/>
      <feFlood flood-opacity="0.149"/>
      <feComposite operator="in" in2="blur-2"/>
    </filter>
  </defs>
  <g id="Mode_Light_State_On" data-name="Mode=Light, State=On" transform="translate(0 7)">
    <path id="Background" d="M0,0H51V31H0Z" fill="none"/>
    <path id="Background-2" data-name="Background" d="M15.857.092C17.6-.008,19.335,0,21.075,0h8.817c1.774,0,3.512-.008,5.251.092A21.645,21.645,0,0,1,39.8.8a15.242,15.242,0,0,1,0,29.394,21.707,21.707,0,0,1-4.654.711c-1.739.1-3.477.091-5.217.091H21.107c-1.772,0-3.51.008-5.25-.092A21.708,21.708,0,0,1,11.2,30.2,15.242,15.242,0,0,1,11.2.8,21.645,21.645,0,0,1,15.857.092Z" fill="#2b67a3"/>
    <g id="Knob-3" data-name="Knob">
      <g transform="matrix(1, 0, 0, 1, 0, -7)" filter="url(#Knob)">
        <path id="Knob-4" data-name="Knob" d="M13.5,27A13.5,13.5,0,1,0,0,13.5,13.5,13.5,0,0,0,13.5,27Z" transform="translate(22 9)" fill="#fff"/>
      </g>
      <g transform="matrix(1, 0, 0, 1, 0, -7)" filter="url(#Knob-2)">
        <path id="Knob-5" data-name="Knob" d="M13.5,27A13.5,13.5,0,1,0,0,13.5,13.5,13.5,0,0,0,13.5,27Z" transform="translate(22 9)" fill="#fff"/>
      </g>
    </g>
  </g>
</svg>
