<svg xmlns="http://www.w3.org/2000/svg" width="14" height="14" viewBox="0 0 14 14">
  <path id="Icon_material-date-range" data-name="Icon material-date-range" d="M9.167,9.3H7.611v1.4H9.167Zm3.111,0H10.722v1.4h1.556Zm3.111,0H13.833v1.4h1.556Zm1.556-4.9h-.778V3H14.611V4.4H8.389V3H6.833V4.4H6.056A1.476,1.476,0,0,0,4.508,5.8L4.5,15.6A1.483,1.483,0,0,0,6.056,17H16.944A1.488,1.488,0,0,0,18.5,15.6V5.8A1.488,1.488,0,0,0,16.944,4.4Zm0,11.2H6.056V7.9H16.944Z" transform="translate(-4.5 -3)" fill="#719ac3"/>
</svg>
