<svg xmlns="http://www.w3.org/2000/svg" width="44" height="44" viewBox="0 0 44 44">
  <g id="Group_204" data-name="Group 204" transform="translate(-33 -10)">
    <path id="Path_69" data-name="Path 69" d="M22,0A22,22,0,1,1,0,22,22,22,0,0,1,22,0Z" transform="translate(33 10)" fill="#2b67a3"/>
    <path id="Mask" d="M15,20H3a3,3,0,0,1-3-3V6A3,3,0,0,1,3,3H4.42a5,5,0,0,1,9.158,0H15a3,3,0,0,1,3,3V17A3,3,0,0,1,15,20ZM3,5A1,1,0,0,0,2,6V17a1,1,0,0,0,1,1H15a1,1,0,0,0,1-1V6a1,1,0,0,0-1-1H14A5,5,0,0,1,4,5ZM8,2.172A2.973,2.973,0,0,0,6.1,4.238l0,.015a.167.167,0,0,0,0,.021l0,.013A2.639,2.639,0,0,0,6,5a3,3,0,1,0,6,0,2.628,2.628,0,0,0-.093-.729A3,3,0,0,0,10,2.172V4A1,1,0,1,1,8,4Z" transform="translate(46 22)" fill="#fff"/>
  </g>
</svg>
