<svg xmlns="http://www.w3.org/2000/svg" width="44" height="44" viewBox="0 0 44 44">
  <g id="Group_202" data-name="Group 202" transform="translate(-33 -10)">
    <path id="Path_69" data-name="Path 69" d="M22,0A22,22,0,1,1,0,22,22,22,0,0,1,22,0Z" transform="translate(33 10)" fill="#2b67a3"/>
    <g id="Icon_Outline_calendar" data-name="Icon/Outline/calendar" transform="translate(43 20)">
      <path id="Mask" d="M15,20H3a3,3,0,0,1-3-3V5A3,3,0,0,1,3,2H4V1A1,1,0,0,1,6,1V2h6V1a1,1,0,0,1,2,0V2h1a3,3,0,0,1,3,3V17A3,3,0,0,1,15,20ZM2,11v6a1,1,0,0,0,1,1H15a1,1,0,0,0,1-1V11ZM3,4A1,1,0,0,0,2,5V9H16V5a1,1,0,0,0-1-1H14V5a1,1,0,0,1-2,0V4H6V5A1,1,0,0,1,4,5V4ZM13,15H9a1,1,0,0,1,0-2h4a1,1,0,1,1,0,2ZM5,15a1,1,0,1,1,1-1A1,1,0,0,1,5,15Z" transform="translate(3 2)" fill="#fff"/>
    </g>
  </g>
</svg>
