<svg xmlns="http://www.w3.org/2000/svg" width="44" height="44" viewBox="0 0 44 44">
  <g id="Group_203" data-name="Group 203" transform="translate(-33 -10)">
    <path id="Path_69" data-name="Path 69" d="M22,0A22,22,0,1,1,0,22,22,22,0,0,1,22,0Z" transform="translate(33 10)" fill="#2b67a3"/>
    <g id="Group_84" data-name="Group 84">
      <path id="Path_78" data-name="Path 78" d="M998.6,1619.709v-5.279c-.113,0-.157.081-.216.133q-4.719,4.148-9.43,8.3c-.164.145-.238.125-.365-.028-.272-.329-.551-.654-.849-.959-.157-.161-.114-.234.033-.363q3.667-3.213,7.324-6.437,1.851-1.629,3.7-3.26a.985.985,0,0,1,.85-.323.919.919,0,0,1,.776,1q-.014,2.728-.032,5.455c0,.714,0,1.429-.011,2.143a.3.3,0,0,0,.216.326,8.464,8.464,0,0,1,4.7,5.35.322.322,0,0,0,.21.23c.807.3,1.611.613,2.42.91a1.594,1.594,0,0,1,1.132,1.412,1.534,1.534,0,0,1-.8,1.488,6.105,6.105,0,0,1-1.369.535q-.524.186-1.058.344a.355.355,0,0,0-.264.279c-.159.552-.33,1.1-.5,1.649a2.511,2.511,0,0,1-.42.841,1.353,1.353,0,0,1-1.647.437,1.866,1.866,0,0,1-1.09-1.124c-.25-.687-.505-1.373-.757-2.059-.039-.106-.079-.194-.211-.228a9.669,9.669,0,0,1-3.9-2.23,8.254,8.254,0,0,1-2.516-4.513,14.492,14.492,0,0,1-.395-2.8,1.446,1.446,0,0,1,1.719-1.633c.463.036.926.081,1.385.15S998.135,1619.618,998.6,1619.709Zm6.464,8.033c-.224-.089-.443-.191-.672-.264a1.042,1.042,0,0,1-.726-.86,6.65,6.65,0,0,0-2.919-4.119c-.034.056-.061.094-.081.135a6.372,6.372,0,0,1-3.19,3.162c-.219.1-.1.186-.028.28a7.075,7.075,0,0,0,4.415,2.775.893.893,0,0,1,.723.581l.145.36.694,1.908a16.991,16.991,0,0,0,.589-1.761,1.039,1.039,0,0,1,.752-.775c.612-.184,1.217-.394,1.823-.6.091-.031.205-.025.273-.148Zm-8.94-6.635c-.119-.025-.214-.011-.194.191a12.871,12.871,0,0,0,.528,2.773c.045.138.079.209.243.133a4.745,4.745,0,0,0,2.347-2.308c.062-.129.03-.17-.1-.211A13.523,13.523,0,0,0,996.128,1621.106Z" transform="translate(-944.688 -1590.495)" fill="#fff"/>
      <path id="Path_79" data-name="Path 79" d="M979.927,1953.8c0,.148,0,.3,0,.445,0,.432,0,.44-.422.393a3.2,3.2,0,0,1-1.891-.919,1.6,1.6,0,0,0-1.124-.475,1.662,1.662,0,0,0-1.252.567,3.082,3.082,0,0,1-4.232.183,1.279,1.279,0,0,0-1.961.077c-.248.251-.5.5-.738.758-.1.108-.167.135-.286.014-.33-.339-.674-.665-1.013-.995-.068-.066-.137-.121-.031-.222a16.633,16.633,0,0,1,1.215-1.185,2.989,2.989,0,0,1,3.865.11,1.309,1.309,0,0,0,1.932-.01,3.391,3.391,0,0,1,4.866-.1,1.422,1.422,0,0,0,.882.429c.144.01.189.072.185.21-.009.241,0,.482,0,.723Z" transform="translate(-925.122 -1911.505)" fill="#fff"/>
      <path id="Path_80" data-name="Path 80" d="M995,1656.135a1.883,1.883,0,0,1,1.876,1.905,1.9,1.9,0,0,1-3.792-.04A1.887,1.887,0,0,1,995,1656.135Z" transform="translate(-949.821 -1632.656)" fill="#fff"/>
      <path id="Path_81" data-name="Path 81" d="M1326.8,1958.938a3.349,3.349,0,0,1,2.294.933c.262.25.508.516.769.765.108.1.127.173.007.286q-.517.486-1.014.993c-.112.115-.174.081-.265-.016q-.333-.355-.681-.7a1.551,1.551,0,0,0-2.184-.106,3.43,3.43,0,0,1-1.4.708c-.181.043-.265,0-.284-.2-.038-.424-.1-.846-.16-1.267-.023-.163-.019-.278.191-.316a1.344,1.344,0,0,0,.566-.34A3.387,3.387,0,0,1,1326.8,1958.938Z" transform="translate(-1262.149 -1918.562)" fill="#fff"/>
      <path id="Path_82" data-name="Path 82" d="M1258.061,1904.914c.131-.01.122-.129.147-.206.105-.323.206-.648.292-.977a.379.379,0,0,1,.285-.3c.457-.143.909-.3,1.364-.453a.52.52,0,0,0,.245-.117l1.8.675c-.068.122-.182.117-.273.147-.606.2-1.21.415-1.823.6a1.039,1.039,0,0,0-.752.775,16.988,16.988,0,0,1-.589,1.761Z" transform="translate(-1200.014 -1865.618)" fill="#fff" opacity="0.2"/>
      <path id="Path_83" data-name="Path 83" d="M1151.69,1799.27a.493.493,0,1,1-.986.01.493.493,0,1,1,.986-.01Z" transform="translate(-1098.648 -1767.337)" fill="#fff"/>
    </g>
  </g>
</svg>
