<svg xmlns="http://www.w3.org/2000/svg" width="40" height="40" viewBox="0 0 40 40">
  <g id="Group_70" data-name="Group 70" transform="translate(-336 -577)">
    <path id="Path_72" data-name="Path 72" d="M20,0A20,20,0,1,1,0,20,20,20,0,0,1,20,0Z" transform="translate(336 577)" fill="rgba(72,80,88,0.06)"/>
    <g id="Icon_Outline_log-out" data-name="Icon/Outline/log-out" transform="translate(344 609) rotate(-90)">
      <path id="Mask" d="M3,16H1a1,1,0,0,1-1-1V1A1,1,0,0,1,1,0H3A1,1,0,1,1,3,2H2V14H3a1,1,0,1,1,0,2Zm10-3a.99.99,0,0,1-.6-.2,1,1,0,0,1-.2-1.4L14,9H6A1,1,0,1,1,6,7h8a.167.167,0,0,1,.048.009.269.269,0,0,0,.039.009L12.368,4.575a1,1,0,0,1,.243-1.393A.989.989,0,0,1,13.184,3a1,1,0,0,1,.82.425l2.814,4A1,1,0,0,1,16.8,8.6l-3,4A.992.992,0,0,1,13,13Z" transform="translate(4 4)" fill="#485058"/>
    </g>
  </g>
</svg>
