<svg xmlns="http://www.w3.org/2000/svg" width="44" height="44.001" viewBox="0 0 44 44.001">
  <g id="Group_215" data-name="Group 215" transform="translate(0 0)">
    <path id="Path_122" data-name="Path 122" d="M167.432,119.434a22,22,0,1,0-11-2.947,22,22,0,0,0,11,2.947Zm0-41.543a19.542,19.542,0,1,1-13.818,5.724A19.541,19.541,0,0,1,167.432,77.891Z" transform="translate(-145.432 -75.434)" fill="gray"/>
    <path id="Path_123" data-name="Path 123" d="M124.85,43.183,119.833,48.2l5.017,5.017a1.155,1.155,0,1,1-1.633,1.634L118.2,49.833l-5.017,5.017a1.155,1.155,0,0,1-1.634-1.633l5.017-5.017-5.017-5.017a1.128,1.128,0,0,1,0-1.633,1.162,1.162,0,0,1,1.633,0l5.017,5.017,5.017-5.017a1.128,1.128,0,0,1,1.633,0,1.162,1.162,0,0,1,0,1.633Z" transform="translate(-96.201 -26.2)" fill="gray"/>
  </g>
</svg>
