<svg xmlns="http://www.w3.org/2000/svg" width="21" height="14.701" viewBox="0 0 21 14.701">
  <g id="Group_90" data-name="Group 90" transform="translate(-49 -345)">
    <g id="Icon_Outline_eye" data-name="Icon/Outline/eye" transform="translate(49 345)">
      <path id="Mask" d="M10.526,14.7C4.361,14.7.792,9.014.139,7.874a1.05,1.05,0,0,1,0-1.045C1.035,5.265,4.411.152,10.216,0c.1,0,.206,0,.308,0a10.634,10.634,0,0,1,7.2,2.984,16.564,16.564,0,0,1,3.132,3.845,1.055,1.055,0,0,1,0,1.045c-.9,1.563-4.275,6.676-10.077,6.824ZM10.465,2.1l-.195,0A8.445,8.445,0,0,0,5.1,4.134,13.721,13.721,0,0,0,2.281,7.347C3.318,8.926,6.2,12.6,10.55,12.6l.18,0a8.444,8.444,0,0,0,5.164-2.03,13.68,13.68,0,0,0,2.823-3.213C17.682,5.777,14.8,2.1,10.465,2.1Zm.035,8.926a3.675,3.675,0,1,1,3.675-3.675A3.679,3.679,0,0,1,10.5,11.027Zm0-5.251a1.575,1.575,0,1,0,1.575,1.575A1.577,1.577,0,0,0,10.5,5.776Z" transform="translate(0 0)" fill="#485058"/>
    </g>
  </g>
</svg>
