<svg xmlns="http://www.w3.org/2000/svg" width="18" height="22.499" viewBox="0 0 18 22.499">
  <g id="Group_89" data-name="Group 89" transform="translate(-50 -291)">
    <g id="Icon_Outline_pin" data-name="Icon/Outline/pin" transform="translate(46 289)">
      <path id="Mask" d="M9,22.5a1.123,1.123,0,0,1-.732-.272,36.325,36.325,0,0,1-4.261-4.456,23.523,23.523,0,0,1-2.763-4.221A10.622,10.622,0,0,1,0,8.912a9,9,0,0,1,18,0,10.622,10.622,0,0,1-1.244,4.639,23.523,23.523,0,0,1-2.763,4.221,36.325,36.325,0,0,1-4.261,4.456A1.127,1.127,0,0,1,9,22.5ZM9,2.25A6.714,6.714,0,0,0,2.25,8.912c0,1.79.9,3.93,2.669,6.36A35.13,35.13,0,0,0,9,19.852a35.067,35.067,0,0,0,4.082-4.58c1.771-2.43,2.669-4.57,2.669-6.36A6.714,6.714,0,0,0,9,2.25ZM9,12.375a3.938,3.938,0,1,1,3.938-3.938A3.942,3.942,0,0,1,9,12.375ZM9,6.749a1.687,1.687,0,1,0,1.688,1.688A1.69,1.69,0,0,0,9,6.749Z" transform="translate(4 2)" fill="#485058"/>
    </g>
  </g>
</svg>
