<svg xmlns="http://www.w3.org/2000/svg" width="44" height="44.001" viewBox="0 0 44 44.001">
  <g id="Group_216" data-name="Group 216" transform="translate(0 0)">
    <path id="Path_121" data-name="Path 121" d="M263.105,229.47a1.2,1.2,0,0,0,.835.358,1.134,1.134,0,0,0,.835-.3l11.513-10.916a1.193,1.193,0,0,0,.06-1.67,1.312,1.312,0,0,0-1.73-.06L264,226.965l-4.653-4.891h0a1.133,1.133,0,0,0-1.67,0,1.193,1.193,0,0,0-.06,1.67Z" transform="translate(-244.982 -201.207)" fill="#2b67a3"/>
    <path id="Path_122" data-name="Path 122" d="M167.432,119.434a22,22,0,1,0-11-2.947,22,22,0,0,0,11,2.947Zm0-41.543a19.542,19.542,0,1,1-13.818,5.724A19.541,19.541,0,0,1,167.432,77.891Z" transform="translate(-145.432 -75.434)" fill="#2b67a3"/>
  </g>
</svg>
