<svg xmlns="http://www.w3.org/2000/svg" width="19" height="20" viewBox="0 0 19 20">
  <g id="Group_127" data-name="Group 127" transform="translate(-171 -105)">
    <g id="Icon_Outline_twitter" data-name="Icon/Outline/twitter" transform="translate(167.83 101.535)">
      <path id="Mask" d="M5.819,20c-.028,0-.057,0-.085,0A10.084,10.084,0,0,1,.821,18.642a1.815,1.815,0,0,1-.806-1.8,1.633,1.633,0,0,1,1.223-1.476,6.422,6.422,0,0,0,2.681-1.109C-.2,10.609-.054,5.106.2,2.909A1.689,1.689,0,0,1,1.228,1.48,1.261,1.261,0,0,1,1.657,1.4a1.345,1.345,0,0,1,1.082.587C4.364,4.17,6,5.262,7.88,5.426A6.268,6.268,0,0,1,9.368,1.544,4.357,4.357,0,0,1,12.629,0l.145,0A4.429,4.429,0,0,1,16.1,1.79.626.626,0,0,0,16.576,2a.723.723,0,0,0,.341-.09,1.315,1.315,0,0,1,.62-.158,1.336,1.336,0,0,1,.936.4,1.92,1.92,0,0,1,.484,1.752A8.975,8.975,0,0,1,17.6,7.161a14.56,14.56,0,0,1-3.247,8.812,11.307,11.307,0,0,1-3.67,2.918A10.9,10.9,0,0,1,5.819,20ZM2.2,4.918a9.345,9.345,0,0,0,3.934,8.066l1.011.683-.673,1.126a6.043,6.043,0,0,1-2.825,2.4,7.958,7.958,0,0,0,2.163.3h.012a.6.6,0,0,1,.079,0c4.719-.036,9.6-4.064,9.6-10.742a1.784,1.784,0,0,1,.39-1.059l.016-.023a6.535,6.535,0,0,0,.641-1.168,2.576,2.576,0,0,1-2.02-1.053A2.441,2.441,0,0,0,12.709,2.5l-.095,0a2.435,2.435,0,0,0-1.793.859,3.6,3.6,0,0,0-.767,3.034l.276,1.424-1.231.1c-.242.021-.485.032-.722.032A8.13,8.13,0,0,1,2.2,4.918Z" transform="translate(3.17 3.465)" fill="#485058"/>
    </g>
  </g>
</svg>
