<svg xmlns="http://www.w3.org/2000/svg" width="20" height="20" viewBox="0 0 20 20">
  <g id="Icon_Outline_image" data-name="Icon/Outline/image" transform="translate(-3 -3)">
    <path id="Mask" d="M16.667,20H3.333A3.337,3.337,0,0,1,0,16.667V3.333A3.337,3.337,0,0,1,3.333,0H16.667A3.337,3.337,0,0,1,20,3.333V16.667A3.337,3.337,0,0,1,16.667,20ZM12.26,11.109a.811.811,0,0,0-.52.174L3.957,17.778h12.71a1.112,1.112,0,0,0,1.111-1.111V15.549l-5-4.267A.8.8,0,0,0,12.26,11.109ZM3.333,2.222A1.112,1.112,0,0,0,2.222,3.333v13l8.086-6.747a3.086,3.086,0,0,1,3.911.007l3.559,3.036V3.333a1.112,1.112,0,0,0-1.111-1.111ZM5.556,7.778A1.667,1.667,0,1,1,7.222,6.111,1.669,1.669,0,0,1,5.556,7.778Z" transform="translate(3 3)" fill="#485058"/>
  </g>
</svg>
