<svg xmlns="http://www.w3.org/2000/svg" width="18.783" height="24" viewBox="0 0 18.783 24">
  <g id="location" transform="translate(0.117 0.397)">
    <path id="Mask" d="M9.391,24a1.157,1.157,0,0,1-.764-.291,38.366,38.366,0,0,1-4.446-4.753,25.156,25.156,0,0,1-2.883-4.5A11.528,11.528,0,0,1,0,9.506,9.46,9.46,0,0,1,9.391,0a9.46,9.46,0,0,1,9.391,9.506,11.528,11.528,0,0,1-1.3,4.948,25.156,25.156,0,0,1-2.883,4.5,38.366,38.366,0,0,1-4.446,4.753A1.161,1.161,0,0,1,9.391,24Zm0-21.6A7.083,7.083,0,0,0,2.348,9.506c0,1.909.937,4.192,2.785,6.784a37.206,37.206,0,0,0,4.259,4.885A37.139,37.139,0,0,0,13.65,16.29c1.848-2.592,2.785-4.875,2.785-6.784A7.083,7.083,0,0,0,9.391,2.4Zm0,10.8a4.2,4.2,0,0,1,0-8.4,4.2,4.2,0,0,1,0,8.4Zm0-6A1.8,1.8,0,1,0,11.153,9,1.783,1.783,0,0,0,9.391,7.2Z" transform="translate(-0.117 -0.397)" fill="rgba(1,1,1,0.48)"/>
  </g>
</svg>
