<svg xmlns="http://www.w3.org/2000/svg" width="24" height="21.913" viewBox="0 0 24 21.913">
  <g id="message" transform="translate(-0.231 -0.474)">
    <path id="Mask" d="M1.2,21.913a1.244,1.244,0,0,1-.592-.149,1.149,1.149,0,0,1-.608-1V3.46A3.536,3.536,0,0,1,3.6,0H20.4A3.536,3.536,0,0,1,24,3.46V14.993a3.536,3.536,0,0,1-3.6,3.461H7.865a1.226,1.226,0,0,0-.618.165l-5.429,3.13A1.225,1.225,0,0,1,1.2,21.913ZM3.6,2.306A1.179,1.179,0,0,0,2.4,3.46V18.723L6.012,16.64a3.716,3.716,0,0,1,1.852-.493H20.4a1.179,1.179,0,0,0,1.2-1.154V3.46a1.179,1.179,0,0,0-1.2-1.153ZM16.8,10.38A1.154,1.154,0,1,1,18,9.227,1.179,1.179,0,0,1,16.8,10.38Zm-4.8,0a1.154,1.154,0,1,1,1.2-1.153A1.179,1.179,0,0,1,12,10.38Zm-4.8,0A1.154,1.154,0,1,1,8.4,9.227,1.179,1.179,0,0,1,7.2,10.38Z" transform="translate(0.231 0.474)" fill="rgba(0,0,0,0.48)"/>
  </g>
</svg>
