<svg xmlns="http://www.w3.org/2000/svg" width="114.997" height="100.446" viewBox="0 0 114.997 100.446">
  <g id="noun-family-156650" transform="translate(-0.011 -151.92)">
    <path id="Path_108" data-name="Path 108" d="M452.649,1062.7H438.817a12.946,12.946,0,0,0-12.947,12.945v.216H465.6v-.216A12.944,12.944,0,0,0,452.65,1062.7Z" transform="translate(-385.047 -823.495)" fill="#719ac3"/>
    <path id="Path_109" data-name="Path 109" d="M513.741,749.3a13.266,13.266,0,1,1-13.266-13.265A13.266,13.266,0,0,1,513.741,749.3" transform="translate(-440.508 -528.141)" fill="#719ac3"/>
    <path id="Path_110" data-name="Path 110" d="M122.085,317.237A18.437,18.437,0,1,1,103.648,298.8a18.437,18.437,0,0,1,18.437,18.437" transform="translate(-77.034 -132.804)" fill="#719ac3"/>
    <path id="Path_111" data-name="Path 111" d="M746.014,170.357a18.437,18.437,0,1,1-18.437-18.437,18.437,18.437,0,0,1,18.437,18.437" transform="translate(-641.169)" fill="#719ac3"/>
    <path id="Path_112" data-name="Path 112" d="M676.954,577.925H657.731a17.979,17.979,0,0,0-16.311,10.435A18.032,18.032,0,0,1,651.6,620.074a17.757,17.757,0,0,1,13.677,17.252v.214h29.673V595.917a17.994,17.994,0,0,0-17.993-17.993Z" transform="translate(-579.939 -385.178)" fill="#719ac3"/>
    <path id="Path_113" data-name="Path 113" d="M48.605,753.169a18,18,0,0,1-2.248-25.849,17.887,17.887,0,0,0-9.132-2.508H18A17.988,17.988,0,0,0,.011,742.8v27.546H36.033v-.216a17.766,17.766,0,0,1,12.574-16.967Z" transform="translate(0 -517.989)" fill="#719ac3"/>
  </g>
</svg>
