<svg xmlns="http://www.w3.org/2000/svg" width="66" height="66" viewBox="0 0 66 66">
  <g id="noun-tick-801900" transform="translate(797.8 108.801)">
    <path id="Path_107" data-name="Path 107" d="M114.2,11.2a33,33,0,1,0,33,33,33.009,33.009,0,0,0-33-33Zm16.981,25.025L111.794,55.68a3.5,3.5,0,0,1-2.406,1.031,3.226,3.226,0,0,1-2.406-1.031l-9.762-9.763a3.452,3.452,0,0,1,4.882-4.881l7.287,7.287,16.981-16.981a3.4,3.4,0,0,1,4.881,0,3.466,3.466,0,0,1-.069,4.881Z" transform="translate(-879 -120)" fill="#2b67a3"/>
  </g>
</svg>
