<svg xmlns="http://www.w3.org/2000/svg" width="22.533" height="24" viewBox="0 0 22.533 24">
  <path id="tracker" d="M82,24A12,12,0,1,1,90.485,3.514a1,1,0,0,1-1.414,1.415A10,10,0,1,0,82,22a9.936,9.936,0,0,0,7.071-2.929,1,1,0,1,1,1.414,1.414A11.922,11.922,0,0,1,82,24Zm-.049-4A8,8,0,1,1,87.608,6.343a1,1,0,1,1-1.414,1.415,6,6,0,1,0,0,8.485,1,1,0,0,1,1.414,1.414A7.948,7.948,0,0,1,81.951,20ZM81.9,16A4,4,0,1,1,84.73,9.172a1,1,0,1,1-1.414,1.414,2,2,0,1,0,0,2.828,1,1,0,1,1,1.414,1.414A3.969,3.969,0,0,1,81.9,16Zm.1-3a1,1,0,0,1-.707-1.707L90.826,1.76A1,1,0,1,1,92.24,3.174l-9.533,9.533A1,1,0,0,1,82,13Z" transform="translate(-70)" fill="rgba(1,1,1,0.48)"/>
</svg>
