<svg xmlns="http://www.w3.org/2000/svg" xmlns:xlink="http://www.w3.org/1999/xlink" version="1.1" width="1000" height="1000" viewBox="0 0 1000 1000" xml:space="preserve">
<desc>Created with Fabric.js 3.5.0</desc>
<defs>
</defs>
<rect x="0" y="0" width="100%" height="100%" fill="rgba(255,255,255,0)"/>
<g transform="matrix(1.968 0 0 -1.968 500.0044 500.0044)" id="420131">
<g style="" vector-effect="non-scaling-stroke">
		<g transform="matrix(1 0 0 1 0.0012 -101.9995)" id="Capa_1">
<path style="stroke: none; stroke-width: 1; stroke-dasharray: none; stroke-linecap: butt; stroke-dashoffset: 0; stroke-linejoin: miter; stroke-miterlimit: 4; is-custom-font: none; font-file-url: none; fill: rgb(0,0,0); fill-rule: nonzero; opacity: 1;" transform=" translate(-230.9717, -128.971)" d="M 94.42 143.113 c 8.82 -8.82 23.171 -8.82 31.993 0 c 24.416 24.416 64.145 24.416 88.561 0 c 4.273 -4.273 9.954 -6.626 15.997 -6.626 s 11.724 2.354 15.997 6.626 c 24.416 24.416 64.145 24.416 88.561 0 c 4.273 -4.273 9.954 -6.626 15.997 -6.626 s 11.724 2.354 15.997 6.626 c 11.828 11.828 27.554 18.342 44.28 18.342 c 16.728 0 32.453 -6.514 44.281 -18.342 c 7.811 -7.811 7.81 -20.474 -0.001 -28.284 c -7.811 -7.811 -20.474 -7.811 -28.284 0 c -4.272 4.273 -9.953 6.626 -15.996 6.626 s -11.724 -2.354 -15.996 -6.625 c -11.827 -11.828 -27.554 -18.342 -44.28 -18.343 c -0.002 0 0 0 -0.001 0 c -16.726 0 -32.453 6.515 -44.281 18.342 c -8.82 8.821 -23.174 8.819 -31.992 0.001 c -11.827 -11.828 -27.554 -18.342 -44.28 -18.343 c -0.002 0 0 0 -0.001 0 c -16.726 0 -32.453 6.515 -44.281 18.342 c -8.82 8.821 -23.174 8.82 -31.992 0 c -24.417 -24.417 -64.146 -24.417 -88.562 0 c -8.82 8.82 -23.172 8.82 -31.994 0 c -7.811 -7.811 -20.474 -7.811 -28.284 0 s -7.81 20.474 0.001 28.284 C 30.274 167.529 70.002 167.529 94.42 143.113 z" stroke-linecap="round"/>
</g>
		<g transform="matrix(1 0 0 1 0.0022 0.0005)" id="Capa_1">
<path style="stroke: none; stroke-width: 1; stroke-dasharray: none; stroke-linecap: butt; stroke-dashoffset: 0; stroke-linejoin: miter; stroke-miterlimit: 4; is-custom-font: none; font-file-url: none; fill: rgb(0,0,0); fill-rule: nonzero; opacity: 1;" transform=" translate(-230.9727, -230.971)" d="M 427.799 216.829 c -4.272 4.273 -9.953 6.626 -15.996 6.626 s -11.724 -2.354 -15.996 -6.625 c -11.827 -11.828 -27.554 -18.342 -44.28 -18.343 c -0.002 0 0 0 -0.001 0 c -16.726 0 -32.453 6.515 -44.281 18.342 c -8.82 8.821 -23.174 8.819 -31.992 0.001 c -11.827 -11.828 -27.554 -18.342 -44.28 -18.343 c -0.002 0 0 0 -0.001 0 c -16.726 0 -32.453 6.515 -44.281 18.342 c -8.82 8.821 -23.174 8.82 -31.992 0 c -24.417 -24.417 -64.146 -24.417 -88.562 0 c -8.82 8.82 -23.172 8.82 -31.994 0 c -7.811 -7.811 -20.474 -7.811 -28.284 0 s -7.81 20.474 0.001 28.284 c 24.416 24.416 64.144 24.416 88.562 0 c 8.82 -8.82 23.171 -8.82 31.993 0 c 24.416 24.416 64.145 24.416 88.561 0 c 4.273 -4.273 9.954 -6.626 15.997 -6.626 s 11.724 2.354 15.997 6.626 c 24.416 24.416 64.145 24.416 88.561 0 c 4.273 -4.273 9.954 -6.626 15.997 -6.626 s 11.724 2.354 15.997 6.626 c 11.828 11.828 27.554 18.342 44.28 18.342 c 16.728 0 32.453 -6.514 44.281 -18.342 c 7.811 -7.811 7.81 -20.474 -0.001 -28.284 C 448.272 209.018 435.609 209.018 427.799 216.829 z" stroke-linecap="round"/>
</g>
		<g transform="matrix(1 0 0 1 0.0022 102.0005)" id="Capa_1">
<path style="stroke: none; stroke-width: 1; stroke-dasharray: none; stroke-linecap: butt; stroke-dashoffset: 0; stroke-linejoin: miter; stroke-miterlimit: 4; is-custom-font: none; font-file-url: none; fill: rgb(0,0,0); fill-rule: nonzero; opacity: 1;" transform=" translate(-230.9727, -332.971)" d="M 427.799 318.829 c -4.272 4.273 -9.953 6.626 -15.996 6.626 s -11.724 -2.354 -15.996 -6.625 c -11.827 -11.828 -27.554 -18.342 -44.28 -18.343 c -0.002 0 0 0 -0.001 0 c -16.726 0 -32.453 6.515 -44.281 18.342 c -8.82 8.821 -23.174 8.819 -31.992 0.001 c -11.827 -11.828 -27.554 -18.342 -44.28 -18.343 c -0.002 0 0 0 -0.001 0 c -16.726 0 -32.453 6.515 -44.281 18.342 c -8.82 8.82 -23.174 8.821 -31.992 0 c -24.417 -24.417 -64.146 -24.417 -88.562 0 c -8.82 8.82 -23.172 8.82 -31.994 0 c -7.811 -7.811 -20.474 -7.811 -28.284 0 s -7.81 20.474 0.001 28.284 c 24.416 24.416 64.144 24.416 88.562 0 c 8.82 -8.82 23.171 -8.82 31.993 0 c 24.416 24.416 64.145 24.416 88.561 0 c 4.273 -4.273 9.954 -6.626 15.997 -6.626 s 11.724 2.354 15.997 6.626 c 24.416 24.416 64.145 24.416 88.561 0 c 4.273 -4.273 9.954 -6.626 15.997 -6.626 s 11.724 2.354 15.997 6.626 c 11.828 11.828 27.554 18.342 44.28 18.342 c 16.728 0 32.453 -6.514 44.281 -18.342 c 7.811 -7.811 7.81 -20.474 -0.001 -28.284 C 448.272 311.018 435.609 311.018 427.799 318.829 z" stroke-linecap="round"/>
</g>
</g>
</g>
</svg>